<svg xmlns="http://www.w3.org/2000/svg" viewBox="0 0 1200 630" role="img" aria-labelledby="title desc">
  <title id="title">Cabinet Kiné Santé Grenoble</title>
  <desc id="desc">Image de partage du Cabinet Kiné Santé Grenoble.</desc>
  <defs>
    <linearGradient id="page" x1="0" y1="0" x2="1200" y2="630" gradientUnits="userSpaceOnUse">
      <stop offset="0" stop-color="#eef9f9"/>
      <stop offset=".48" stop-color="#f8fbff"/>
      <stop offset="1" stop-color="#dfeefa"/>
    </linearGradient>
    <radialGradient id="halo" cx="0" cy="0" r="1" gradientUnits="userSpaceOnUse" gradientTransform="translate(912 172) rotate(130) scale(460 330)">
      <stop offset="0" stop-color="#3935d1" stop-opacity=".22"/>
      <stop offset="1" stop-color="#3935d1" stop-opacity="0"/>
    </radialGradient>
    <linearGradient id="bg" x1="98" y1="88" x2="434" y2="424" gradientUnits="userSpaceOnUse">
      <stop offset="0" stop-color="#0e3d50"/>
      <stop offset="1" stop-color="#092d43"/>
    </linearGradient>
    <linearGradient id="teal" x1="170" y1="182" x2="362" y2="384" gradientUnits="userSpaceOnUse">
      <stop offset="0" stop-color="#34d2d1"/>
      <stop offset="1" stop-color="#1ca7a6"/>
    </linearGradient>
  </defs>
  <rect width="1200" height="630" fill="url(#page)"/>
  <rect width="1200" height="630" fill="url(#halo)"/>
  <path d="M836 138c69-21 151 11 174 78 20 59-23 119-92 119-53 0-91-40-79-78 11-34 58-45 86-21" fill="none" stroke="#3935d1" stroke-opacity=".18" stroke-width="18" stroke-linecap="round"/>
  <path d="M858 326c57 31 128 28 186-8" fill="none" stroke="#18a7a1" stroke-opacity=".28" stroke-width="14" stroke-linecap="round"/>
  <g transform="translate(86 76)">
    <rect width="370" height="370" rx="78" fill="url(#bg)"/>
    <circle cx="185" cy="186" r="128" fill="#12465a" opacity=".72"/>
    <path d="M75 233 145 138l40 52 42-35 68 78H75Z" fill="#f8fbfc"/>
    <path d="m128 162 17-24 40 52 20-17 27 22 13-21-18-19-42 35-40-52-29 40 13-16Z" fill="url(#teal)"/>
    <path d="M185 264c-26-22-46-38-46-63 0-20 15-35 35-35 12 0 22 6 28 16 6-10 15-16 27-16 20 0 35 15 35 35 0 25-20 41-46 63l-16 14-17-14Z" fill="url(#teal)"/>
    <path d="M179 211h12v12h12v12h-12v12h-12v-12h-12v-12h12v-12Z" fill="#f7fbfc"/>
  </g>
  <text x="510" y="222" fill="#0a2740" font-family="Inter, Arial, sans-serif" font-size="58" font-weight="850">Cabinet Kiné Santé</text>
  <text x="510" y="292" fill="#0a2740" font-family="Inter, Arial, sans-serif" font-size="58" font-weight="850">Grenoble</text>
  <text x="512" y="360" fill="#5c7080" font-family="Inter, Arial, sans-serif" font-size="28" font-weight="600">Kinésithérapie et rééducation</text>
  <text x="512" y="402" fill="#5c7080" font-family="Inter, Arial, sans-serif" font-size="28" font-weight="600">accompagnement personnalisé à Grenoble.</text>
  <rect x="512" y="458" width="250" height="54" rx="27" fill="#167d9f"/>
  <text x="637" y="493" text-anchor="middle" fill="#ffffff" font-family="Inter, Arial, sans-serif" font-size="21" font-weight="800">Prendre rendez-vous</text>
</svg>
